# xmcd
# 
# Track frame offsets:
#     150
#     10074
#     21992
#     36492
#     50988
#     57932
#     67551
#     77991
#     88087
#     101111
#     109942
#     123021
#     132171
#     144389
#     153258
#     169075
# 
# Disc length: 2381
# 
# Revision: 0
# Processed by: cddbd v1.5.2PL0 Copyright (c) Steve Scherf et al.
# Submitted via: fre:ac v1.0.31
# 
DISCID=d5094b10
DTITLE=Various Artist - Alpenländische Volksmusik
DYEAR=2006
DGENRE=Folk
TTITLE0=Tiroler Heimatklang - So klingt's in Tirol
TTITLE1=Partenkirchner Sänger Und Basi Erhardt - S' Tanzei
TTITLE2=Ferchenseeklang Mittenwald - Die alte Lena
TTITLE3=Wolfgangtal Dreiklang Mit Zithersolist Hias Ellmauer - Schön grau is da Morgen
TTITLE4=Altsteirertrio Lemmerer - Löffelschlager Polka
TTITLE5=Schönauer Sänger Aus Bayern - Aba Rossknecht steh' auf
TTITLE6=Erpfendorfer Tanzlmusig - Beim Pfarrwirt
TTITLE7=Finsterbach Quintett - Auf'n Heuboden
TTITLE8=Tannheimer Tanzl- Und Stubenmusig - Da Sonnja ihrer
TTITLE9=Zillertaler Wirtshaussänger - In Fügen isch Hochzeit
TTITLE10=Fidelen Gerloser - Gretl Boarischer
TTITLE11=Kreuzalm Musi Aus Bayern - Pinsl-Marsch
TTITLE12=Pfluager Leit'nmusik and Die Kitzbühler Waldhaus Dirndln - A viereckig's Wieserl
TTITLE13=Pustertaler Tanzlmusig - Einfacher Dreher
TTITLE14=Einfacher Dreher - Pustertaler Tanzlmusig
TTITLE15=Ausseer Saitenmusi - Ausseer Almgjodlert
EXTD=
EXTT0=
EXTT1=
EXTT2=
EXTT3=
EXTT4=
EXTT5=
EXTT6=
EXTT7=
EXTT8=
EXTT9=
EXTT10=
EXTT11=
EXTT12=
EXTT13=
EXTT14=
EXTT15=
PLAYORDER=
